<svg width="24" height="23" viewBox="0 0 24 23" xmlns="http://www.w3.org/2000/svg">
  <path d="M19.2715 0L17.1551 2.74794H0L2.64176 16.4559H17.1965L19.0842 4.68105L20.6038 2.7079H24V0H19.2715Z" />
  <path d="M6.0605 17.2632C4.67927 17.2632 3.55566 18.3868 3.55566 19.768C3.55566 21.1491 4.67927 22.2727 6.0605 22.2727C7.44162 22.2727 8.56523 21.1491 8.56523 19.768C8.56523 18.3868 7.44162 17.2632 6.0605 17.2632Z" />
  <path d="M14.3875 17.2632C13.0063 17.2632 11.8828 18.3868 11.8828 19.768C11.8828 21.1491 13.0063 22.2727 14.3875 22.2727C15.7688 22.2727 16.8923 21.1491 16.8923 19.768C16.8923 18.3868 15.7688 17.2632 14.3875 17.2632Z"/>
</svg>
